<svg width="50" height="64" viewBox="0 0 50 64" fill="none" xmlns="http://www.w3.org/2000/svg">
<path fill-rule="evenodd" clip-rule="evenodd" d="M43.0657 49.8534L47.4484 57.3461C45.806 58.2569 44.1653 58.99 42.3342 59.5327L40.1491 51.4957C40.6076 51.2212 41.1141 50.944 41.6202 50.667C42.1178 50.3946 42.6149 50.1225 43.0657 49.8534ZM50 31.5927C50 23.9207 43.7987 17.7163 36.1329 17.7163C28.6559 17.7163 22.4421 23.9207 22.4421 31.5927C22.4421 39.2632 28.6559 45.2913 36.1329 45.2913C43.7987 45.2913 50 39.2632 50 31.5927ZM46.7169 19.3587C43.0657 14.7966 37.5975 12.0547 31.574 12.0547C20.6236 12.0547 11.8582 20.8248 11.8582 31.5927C11.8582 42.3592 20.6236 51.1292 31.574 51.1292C37.585 51.1292 43.0657 48.3873 46.7169 43.8253C43.7987 46.3769 40.1491 47.843 36.1329 47.843C27.0011 47.843 19.7018 40.539 19.7018 31.5927C19.7018 22.6449 27.0011 15.3409 36.1329 15.3409C40.1491 15.3409 43.7987 16.807 46.7169 19.3587ZM40.5156 11.8785L42.3467 5.48381C44.1653 6.02658 45.806 6.75962 47.4609 7.68295L43.9875 13.8873C42.8895 13.1543 41.6136 12.4212 40.5156 11.8785ZM31.939 10.0459L30.6647 0H31.574C33.5813 0 35.5902 0.366523 37.4088 0.731487L36.1329 10.4124C34.8571 10.2221 33.4051 10.0459 31.939 10.0459ZM22.9849 11.6882L20.7998 7.67047C22.4421 6.75962 24.0969 6.02658 25.903 5.48381L27.3676 10.4124C25.9727 10.5802 24.5892 11.0933 23.1941 11.6107C23.1244 11.6365 23.0547 11.6624 22.9849 11.6882ZM15.5094 17.1736L7.66579 11.1454C9.13033 9.31281 10.9489 7.67047 12.9578 6.21686L18.9812 14.0651L18.9663 14.0758C17.6831 14.9939 16.4152 15.9011 15.5094 17.1736ZM10.7727 25.3868L7.12303 24.2872C7.66579 22.4562 8.39884 20.8123 9.32061 19.1699L12.6037 21.0026C11.8707 22.4686 11.3154 23.9207 10.7727 25.3868ZM10.0396 34.8774L0.366523 36.1548C0.176243 34.7012 0 33.0573 0 31.5927C0 30.6819 0 29.7601 0.176243 28.8493L9.86337 30.1266V31.5927C9.86337 32.1415 9.9074 32.6876 9.95145 33.2339C9.99552 33.7806 10.0396 34.3274 10.0396 34.8774ZM13.5005 43.4587L9.30813 45.8341C8.39884 44.1918 7.66579 42.5479 7.12303 40.7153L11.3154 39.4394C11.8582 40.9055 12.5912 42.1814 13.5005 43.4587ZM19.8905 49.8534L13.6908 57.7001C11.8684 56.4314 10.2356 54.7986 8.60239 53.1654L8.57508 53.1381L16.4187 47.1099C16.4825 47.1628 16.5463 47.2158 16.6101 47.2688C17.6451 48.1279 18.6903 48.9955 19.8905 49.8534ZM27.7466 52.9618L25.9155 59.5327C24.097 58.99 22.4421 58.2569 20.8138 57.3461L23.9207 51.8622C25.1873 52.2266 26.4555 52.5909 27.7236 52.9552L27.7466 52.9618ZM35.9551 52.784L37.231 62.6411C35.3999 63.0077 33.4051 63.1855 31.574 63.1855C31.4851 63.1855 31.3935 63.141 31.3019 63.0966C31.2102 63.0521 31.1186 63.0077 31.0297 63.0077L32.3055 53.1505C33.3976 53.1505 34.3605 53.0122 35.4145 52.8609C35.5918 52.8354 35.7716 52.8096 35.9551 52.784ZM34.737 23.9564L38.2556 24.882L37.0578 30.127L39.8278 28.6615L36.2343 39.2287L36.9829 32.441L34.1381 34.3693L34.737 23.9564Z" fill="url(#paint0_linear_2125_149)"/>
<defs>
<linearGradient id="paint0_linear_2125_149" x1="25" y1="0" x2="25" y2="63.1855" gradientUnits="userSpaceOnUse">
<stop stop-color="#CEA512"/>
<stop offset="1" stop-color="#CE7812"/>
</linearGradient>
</defs>
</svg>
